# xmcd
#
# Track frame offsets: 
#        150
#        27006
#        47879
#        66667
#        81966
#        92132
#        131092
#        146734
#        167792
#        190788
#        198631
#        245288
#
# Disc length: 3451 seconds
#
# Revision: 0
# Processed by: cddbd v1.5.1PL0 Copyright (c) Steve Scherf et al.
# Submitted via: ExactAudioCopy v0.95a5
#
DISCID=b10d790c
DTITLE=Richard Koechli - Blue Celtic Mystery
DYEAR=2001
DGENRE=Blues
TTITLE0=Gwydion
TTITLE1=Codiad yr Haul
TTITLE2=Gnomen-Business
TTITLE3=Gnomen-Finale
TTITLE4=Der Barde Taliesin
TTITLE5=Caoineadh
TTITLE6=Samhain
TTITLE7=Le secret du vieux Cajun
TTITLE8=Thuata dé Dannan
TTITLE9=Danse pour Kerid'wen
TTITLE10=Mordred
TTITLE11=Fontaine de l'amour
EXTD=
EXTT0=
EXTT1=
EXTT2=
EXTT3=
EXTT4=
EXTT5=
EXTT6=
EXTT7=
EXTT8=
EXTT9=
EXTT10=
EXTT11=
PLAYORDER=
